<?xml version="1.0" encoding="utf-8"?>
<!-- Generator: Adobe Illustrator 26.0.3, SVG Export Plug-In . SVG Version: 6.00 Build 0)  -->
<svg version="1.1" id="Layer_1" xmlns="http://www.w3.org/2000/svg" xmlns:xlink="http://www.w3.org/1999/xlink" x="0px" y="0px"
	 viewBox="0 0 200 160" style="enable-background:new 0 0 200 160;" xml:space="preserve">
<g id="Logo_x5F_HG_x5F_Label">
	<g>
		<path d="M35.7,158.2l-1.1-7.6h-0.7c-0.4,1.9-0.8,4.4-1.2,7.5l-1-7.5h-0.9l1.4,9.1h0.7l1.3-7.5l1.1,7.5H36l1.5-9.2h-0.9L35.7,158.2
			z"/>
		<path d="M45.3,158.2l-1.1-7.6h-0.7c-0.4,1.9-0.8,4.4-1.2,7.5l-1-7.5h-0.9l1.4,9.1h0.7l1.3-7.5l1.1,7.5h0.8l1.5-9.2h-0.9
			L45.3,158.2z"/>
		<path d="M55.2,158.2l-1.1-7.6h-0.7c-0.4,1.9-0.8,4.4-1.2,7.5l-1-7.5h-0.8l1.4,9.1h0.7l1.3-7.5l1.1,7.5h0.8l1.5-9.2h-0.9
			L55.2,158.2z"/>
		<path d="M60.5,158.6c-0.4,0-0.6,0.2-0.6,0.6c0,0.1,0.1,0.3,0.2,0.4c0.1,0.1,0.2,0.2,0.4,0.2c0.2,0,0.3,0,0.4-0.1
			c0.1-0.1,0.2-0.2,0.2-0.4c0-0.2,0-0.3-0.1-0.4C60.8,158.7,60.7,158.6,60.5,158.6z"/>
		<polygon points="68.2,154.3 66.1,154.3 66.1,150.7 65.2,150.7 65.2,159.8 66.1,159.8 66.1,155.1 68.2,155.1 68.2,159.8 69,159.8 
			69,150.7 68.2,150.7 		"/>
		<path d="M74.4,150.7l-1.8,9.1h0.9l0.3-1.9h2l0.3,1.9h0.9l-1.9-9.1H74.4z M74,157.2l0.9-4.9l0.9,4.9H74z"/>
		<path d="M83.9,154.6c0.2-0.5,0.4-1,0.3-1.6c0-0.2,0-0.4,0-0.6c-0.2-1.1-1.2-1.9-2.4-1.7h-1l0,9.2h0.8v-4.6l2,4.6h0.9l-2-4.4
			C83.1,155.4,83.6,155.1,83.9,154.6z M81.6,154.7v-3.2h0.3c0.4,0,0.8,0.1,1.1,0.4c0.2,0.3,0.3,0.8,0.3,1.2c0,0.4,0,0.8-0.2,1.2
			c-0.2,0.3-0.6,0.5-1,0.5H81.6z"/>
		<polygon points="88.1,159.8 89,159.8 89,155.4 91,155.4 91,154.6 89,154.6 89,151.4 91.1,151.4 91.1,150.7 88.1,150.7 		"/>
		<path d="M95.6,150.7l-1.8,9.1h0.9l0.3-1.9h2l0.3,1.9h0.9l-1.9-9.1H95.6z M95.2,157.2l0.9-4.9l0.9,4.9H95.2z"/>
		<polygon points="105.1,157.9 102.8,150.7 102,150.7 102,159.8 102.8,159.8 102.8,152.7 105.1,159.8 105.9,159.8 105.9,150.7 
			105.1,150.7 		"/>
		<path d="M112,151.4c0.3,0,0.6,0.1,0.7,0.4c0.1,0.3,0.2,0.5,0.3,0.8l0.9-0.3c-0.4-1.1-0.9-1.7-1.9-1.7s-1.7,0.6-2,1.9
			c-0.2,1-0.3,2.1-0.2,3.1c0,0.9,0.1,1.8,0.3,2.7c0.3,1.1,0.9,1.6,1.8,1.6c0.8,0,1.4-0.4,1.7-1.1c0.2-0.7,0.3-1.4,0.3-2.2V155h-2.1
			v0.8h1.2v1.3c0,1.3-0.3,2-1,2h-0.2c-0.8-0.1-1.2-1.3-1.2-3.4v-0.9C110.7,152.5,111.1,151.4,112,151.4z"/>
		<path d="M120.4,154.9c0.3-0.3,0.6-0.6,0.8-0.9c0.1-0.4,0.2-0.8,0.2-1.2c0-0.5-0.1-1-0.4-1.4c0-0.1-0.1-0.1-0.2-0.2
			c-0.7-0.7-1.9-0.6-2.6,0.2c-0.3,0.4-0.4,1-0.4,1.5h0.8c0-0.9,0.3-1.3,1-1.3s1,0.4,1,1.3c0,1.1-0.5,1.7-1.5,1.7h-0.2v0.7h0.3
			c1.1,0,1.6,0.6,1.6,1.8c0,0.5,0,0.9-0.1,1.4c-0.1,0.5-0.5,0.8-1,0.8c-0.7,0-1-0.5-1-1.6v-0.2l-0.9,0.1v0.5c0,1.4,0.7,2.1,1.9,2.1
			c0.6,0,1.1-0.3,1.5-0.8c0.3-0.5,0.4-1.1,0.4-1.7c0-0.5,0-1-0.2-1.5C121.2,155.6,120.9,155.1,120.4,154.9z"/>
		<path d="M129.2,152.2c-0.3-0.8-1-1.4-1.9-1.5h-1.6l0,9.1h0.7c0.6,0,1.2-0.1,1.7-0.2c0.5-0.3,0.9-0.7,1.1-1.2
			c0.3-1.2,0.4-2.4,0.3-3.6C129.5,153.9,129.4,153,129.2,152.2z M128.7,155.3c0,0.2,0,0.4,0,0.6c0,0.6,0,1.1-0.1,1.7
			c-0.1,0.4-0.3,0.8-0.6,1.2c-0.3,0.3-0.8,0.4-1.2,0.4v0h-0.3v-7.6h0.2c0.7-0.1,1.4,0.4,1.7,1.1c0.2,0.7,0.3,1.4,0.3,2.2V155.3z"/>
		<path d="M134.1,158.6c-0.4,0-0.6,0.2-0.6,0.6c0,0.1,0.1,0.3,0.2,0.4c0.1,0.1,0.2,0.2,0.4,0.2c0.2,0,0.3,0,0.4-0.1
			c0.1-0.1,0.2-0.2,0.2-0.4c0-0.2,0-0.3-0.1-0.4C134.4,158.7,134.3,158.6,134.1,158.6z"/>
		<path d="M138.7,155.5c0,2.9,0.8,4.4,2.4,4.4c0.4,0,0.8-0.1,1.2-0.3v-0.8c-0.3,0.2-0.6,0.3-1,0.3c-0.7,0-1.2-0.5-1.5-1.4
			c-0.2-0.7-0.2-1.5-0.2-2.3c0-2.7,0.6-4,1.7-4c0.4,0,0.7,0.1,1,0.3l0-0.9c-0.4-0.1-0.8-0.2-1.2-0.2
			C139.5,150.6,138.7,152.3,138.7,155.5z"/>
		<path d="M148.2,150.5L148.2,150.5c-1,0-1.7,0.6-2,1.8c-0.2,1-0.4,2-0.3,3c0,3.1,0.7,4.6,2.2,4.6c1,0,1.7-0.6,2-1.9
			c0.2-1,0.3-2,0.3-3C150.3,152,149.6,150.5,148.2,150.5z M148.1,159.2L148.1,159.2c-0.9,0-1.4-1.3-1.4-3.8c0-2.8,0.5-4.1,1.4-4.1
			c0.9-0.1,1.4,1.2,1.4,3.9C149.5,157.8,149,159.2,148.1,159.2z"/>
		<path d="M158.3,150.7l-1.3,7.6l-1.2-7.6h-0.7l-1.3,9.1h0.8l0.9-7.5c0.5,3.4,0.8,5.9,1.1,7.6h0.7l1.2-7.5l0.7,7.5h0.8l-1.1-9.1
			H158.3z"/>
	</g>
	<g>
		<path d="M159.1,38.1V0l-46.2,19.1v12.3l-16.6-6.9l-16.6,6.9V19.1L33.5,0v38.1c0,15.9,9,30.5,23.2,37.6l3.6,1.5v16.1l36,14.9
			l36-14.9V77.2l3.6-1.5C150.1,68.6,159.1,54,159.1,38.1z M58.4,71.6C45.9,65.1,38,52.2,38,38.1v-6.7l11.5,4.8v-4.8L38,26.6v-9.2
			l11.5,4.8v-4.8L38,12.6V6.7l37.3,15.4v11.2l-14.9,6.2l-5.3-2.2v4.8l5.3,2.2v28.1L58.4,71.6z M127.9,90.3l-31.6,13.1L64.8,90.3
			V79.1l19.7,8.2v-4.8l-19.7-8.2V46.1l0.9,0.4c-0.1,0.7-0.2,1.4-0.2,2.2c0,5.7,3.8,10.7,9.4,12.1c5.2,1.4,10.5-0.8,13.4-4.9l4.1,1.7
			l3.9,13.3l5.6-18.8l-5.6,2.3L66.1,41.8l30.2-12.4l31.6,13.1v31.7l-19.7,8.2v4.8l19.7-8.2V90.3z M69.9,48.3l14,5.8
			c-1.5,1.7-3.7,2.7-6,2.7c-4.4,0-8-3.7-8-8.1C69.9,48.5,69.9,48.4,69.9,48.3z M134.2,71.6l-1.9,0.8V44.3l5.2-2.2v-4.8l-5.3,2.2
			l-14.9-6.2V22.1l37.3-15.4v5.9l-11.5,4.8v4.8l11.5-4.8v9.2l-11.5,4.8v4.8l11.5-4.8v6.7C154.6,52.2,146.8,65.1,134.2,71.6z"/>
		<path d="M117.8,60.8c6.7-1.8,10.7-8.6,8.9-15.3c-0.3-1.1-0.7-2.1-1.3-3.1l-4.1,1.7c0.9,1.3,1.4,2.9,1.4,4.6h-0.1
			c0.1,4.4-3.4,8.1-7.9,8.2c-4,0.1-7.5-2.8-8.1-6.8l-4.2,1.8C104.3,58.5,111.1,62.5,117.8,60.8z"/>
	</g>
	<g>
		<polygon points="8.3,126.6 2.4,126.6 2.4,116.4 0,116.4 0,142.2 2.4,142.2 2.4,128.7 8.3,128.7 8.3,142.2 10.7,142.2 10.7,116.4 
			8.3,116.4 		"/>
		<path d="M33.3,142.1h2.6l-5.2-25.8h-2.2l-4.9,25.8H26l0.9-5.3h5.5L33.3,142.1z M27.1,134.7l2.5-14l2.5,14H27.1z"/>
		<path d="M57.2,127.3c0.7-1.4,1-2.9,1-4.5c0-4.3-2.2-6.5-6.7-6.5h-3v25.8h2.4v-12.9l5.6,12.9H59l-5.5-12.5
			C55.1,129.6,56.5,128.7,57.2,127.3z M52.4,127.6h-1.4v-9.1h0.9c1.2-0.1,2.3,0.3,3.2,1.1c0.7,1,1,2.1,0.9,3.3
			c0.1,1.1-0.1,2.3-0.6,3.3C54.7,127.1,53.5,127.7,52.4,127.6z"/>
		<polygon points="71.5,142.1 73.9,142.1 73.9,129.6 79.5,129.6 79.5,127.5 73.9,127.5 73.9,118.5 79.7,118.5 79.7,116.3 
			71.5,116.3 		"/>
		<path d="M97.1,116.3h-2.2l-4.9,25.8h2.5l0.9-5.3h5.5l0.9,5.3h2.6L97.1,116.3z M93.6,134.7l2.5-14l2.5,14H93.6z"/>
		<polygon points="126,116.3 123.9,116.3 123.9,136.7 117.5,116.3 115.2,116.3 115.2,142.1 117.3,142.1 117.3,122.2 123.8,142.1 
			126,142.1 		"/>
		<path d="M145.6,118.4c0.8,0,1.6,0.3,2,1c0.4,0.7,0.7,1.5,0.8,2.2l2.5-0.8c-1.1-3.2-2.8-4.8-5.3-4.8c-2.8,0-4.6,1.8-5.5,5.4
			c-0.5,2.8-0.8,5.7-0.7,8.6c-0.1,2.6,0.2,5.2,0.8,7.7c0.9,3.1,2.5,4.6,5,4.6c2.1,0.1,4.1-1.2,4.8-3.2c0.7-2,1-4.1,0.9-6.2v-4.5H145
			v2.2h3.5v3.8c0,3.7-0.9,5.6-2.8,5.6c-0.2,0-0.4,0-0.7,0c-2.2-0.4-3.3-3.6-3.3-9.6v-2.3C141.8,121.6,143.1,118.4,145.6,118.4z"/>
		<path d="M178.4,127c0.8-0.4,1.6-1,2.1-1.8c0.5-1,0.7-2.1,0.6-3.2c0.1-1.9-0.5-3.7-1.7-5.2c-1.1-1.2-3.3-1.9-6.5-1.9
			c-2.5,0-4.4,0.5-5.5,1.3s-1.8,2.6-1.8,5.2v2.2h6.6v-2.2c-0.1-0.7,0-1.4,0.3-2c0.1-0.1,0.1-0.2,0.2-0.2c0.5-0.4,1.2-0.3,1.6,0.2
			c0.2,0.6,0.3,1.2,0.3,1.8v1.5c0,0.6-0.1,1.3-0.2,1.9c-0.1,0.4-0.4,0.7-0.8,0.8c-1,0.2-1.9,0.2-2.9,0.2v3.9c0.9,0,1.8,0.1,2.6,0.3
			c0.4,0.2,0.8,0.5,1,0.9c0.3,0.7,0.4,1.5,0.3,2.2v1.8c0.1,1,0,2.1-0.2,3.1c-0.2,0.4-0.6,0.6-1,0.6c-0.4,0.1-0.7-0.1-0.9-0.5
			c-0.2-0.7-0.3-1.5-0.2-2.2v-4.3h-6.6v2.1c-0.1,1.8,0.1,3.6,0.6,5.4c0.5,1.1,1.3,2,2.4,2.6c1.5,0.8,3.3,1.2,5,1.1
			c1.6,0.1,3.1-0.3,4.6-0.9c1.1-0.6,2-1.5,2.5-2.7c0.5-1.6,0.8-3.3,0.7-4.9c0-2.8-0.2-4.7-0.7-5.4
			C180.1,127.9,179.3,127.3,178.4,127z"/>
		<path d="M200,134.2v-9.3c0-1.7,0-3.4-0.2-5.1c-0.2-0.9-0.6-1.7-1.2-2.3c-0.7-0.8-1.7-1.3-2.7-1.5c-2.2-0.4-4.5-0.5-6.8-0.5h-5.2
			v26.7h8.7c1.2,0,2.5-0.1,3.7-0.3c0.8-0.2,1.5-0.5,2.1-1c0.6-0.5,1-1.2,1.2-1.9C199.9,137.4,200,135.8,200,134.2z M192.7,137
			c-0.2,0.4-0.9,0.6-1.9,0.6V120v0c0.5,0,1.1,0,1.6,0.2c0.3,0.2,0.5,0.4,0.5,0.8c0.1,0.8,0.1,1.5,0.1,2.3v10.4
			C193.1,134.8,193,135.9,192.7,137z"/>
		<path d="M158.5,115.5c0.1-2.4-1.8-4.4-4.2-4.5c-1.2,0-2.3,0.4-3.2,1.2c-0.8,0.8-1.3,1.9-1.3,3c-0.1,2.4,1.8,4.4,4.2,4.5
			C156.4,119.8,158.5,117.9,158.5,115.5z M150.8,115.4c0-1.9,1.5-3.5,3.5-3.5l0,0c0,0,0.1,0,0.1,0c1.9,0.1,3.3,1.6,3.3,3.5
			c0,0,0,0.1,0,0.1c0,1.9-1.5,3.4-3.3,3.4C152.4,118.8,150.8,117.3,150.8,115.4z"/>
		<path d="M155,116.5c0.1,0.4,0.2,0.7,0.3,1.1h1.1c-0.2-0.3-0.3-0.7-0.3-1.1c-0.1-0.6-0.3-0.9-0.8-1.1v-0.1c0.5-0.1,0.9-0.5,0.9-1
			c0-0.4-0.2-0.7-0.5-0.9c-0.4-0.3-1-0.4-1.5-0.3c-0.6,0-1.1,0-1.7,0.1v4.4h1v-1.8h0.5C154.6,115.8,154.9,116,155,116.5z
			 M153.6,115.1l0-1.3c0.2,0,0.4,0,0.6,0c0.6,0,0.9,0.2,0.9,0.7s-0.4,0.6-1,0.6H153.6z"/>
	</g>
</g>
</svg>
